<svg xmlns="http://www.w3.org/2000/svg" version="1.1" xmlns:xlink="http://www.w3.org/1999/xlink" xmlns:svgjs="http://svgjs.dev/svgjs" width="1500" height="1500" viewBox="0 0 1500 1500"><rect width="1500" height="1500" fill="#000000"></rect><g transform="matrix(0.6666666666666666,0,0,0.6666666666666666,249.39393939393938,557.4806721340065)"><svg viewBox="0 0 396 153" data-background-color="#000000" preserveAspectRatio="xMidYMid meet" height="579" width="1500" xmlns="http://www.w3.org/2000/svg" xmlns:xlink="http://www.w3.org/1999/xlink"><g id="tight-bounds" transform="matrix(1,0,0,1,0.2400000000000091,-0.19052548316837203)"><svg viewBox="0 0 395.52 153.38105096633674" height="153.38105096633674" width="395.52"><g><svg viewBox="0 0 564.2027468063461 218.79553565749234" height="153.38105096633674" width="395.52"><g transform="matrix(1,0,0,1,168.68274680634607,67.61099631280034)"><svg viewBox="0 0 395.52 83.57354303189166" height="83.57354303189166" width="395.52"><g id="textblocktransform"><svg viewBox="0 0 395.52 83.57354303189166" height="83.57354303189166" width="395.52" id="textblock"><g><svg viewBox="0 0 395.52 83.57354303189166" height="83.57354303189166" width="395.52"><g transform="matrix(1,0,0,1,0,0)"><svg width="395.52" viewBox="6.71 -34.94 167.64 35.43" height="83.57354303189166" data-palette-color="url(#b09c4024-c11b-439f-817f-176005f17b68)"></svg></g></svg></g></svg></g></svg></g><g><svg viewBox="0 0 148.95303906154922 218.79553565749234" height="218.79553565749234" width="148.95303906154922"><g><svg xmlns="http://www.w3.org/2000/svg" xmlns:xlink="http://www.w3.org/1999/xlink" version="1.1" x="0" y="0" viewBox="18.235558481584594 5.150000000000001 60.53718693618333 88.9224303602619" enable-background="new 0 0 100 100" xml:space="preserve" height="218.79553565749234" width="148.95303906154922" class="icon-icon-0" data-fill-palette-color="accent" id="icon-0"></svg></g></svg></g></svg></g><defs></defs><mask id="1adeac65-b49e-4c07-909b-68813696854a"><g id="SvgjsG1097"><svg viewBox="0 0 395.52 153.38105096633674" height="153.38105096633674" width="395.52"><g><svg viewBox="0 0 564.2027468063461 218.79553565749234" height="153.38105096633674" width="395.52"><g transform="matrix(1,0,0,1,168.68274680634607,67.61099631280034)"><svg viewBox="0 0 395.52 83.57354303189166" height="83.57354303189166" width="395.52"><g id="SvgjsG1096"><svg viewBox="0 0 395.52 83.57354303189166" height="83.57354303189166" width="395.52" id="SvgjsSvg1095"><g><svg viewBox="0 0 395.52 83.57354303189166" height="83.57354303189166" width="395.52"><g transform="matrix(1,0,0,1,0,0)"><svg width="395.52" viewBox="6.71 -34.94 167.64 35.43" height="83.57354303189166" data-palette-color="url(#b09c4024-c11b-439f-817f-176005f17b68)"><path d="M24.07-34.94L24.07-34.94Q28.81-34.94 33.5-33.08L33.5-33.08 32.23-29.64Q27.49-31.27 23.95-31.27L23.95-31.27Q21.02-31.27 18.52-30.11 16.02-28.96 14.37-27.01 12.72-25.07 11.79-22.57 10.86-20.07 10.86-17.33L10.86-17.33Q10.86-14.5 11.85-11.95 12.84-9.4 14.62-7.48 16.41-5.57 19.06-4.44 21.7-3.32 24.85-3.32L24.85-3.32Q28.61-3.32 32.69-4.79L32.69-4.79 33.96-1.71Q28.86 0.49 23.8 0.49L23.8 0.49Q20.68 0.49 17.94-0.42 15.21-1.32 13.17-2.94 11.13-4.57 9.67-6.79 8.2-9.01 7.46-11.68 6.71-14.36 6.71-17.31L6.71-17.31Q6.71-22.31 8.8-26.29 10.89-30.27 14.87-32.6 18.85-34.94 24.07-34.94ZM39.69-14.38L39.69-17.77 60.69-17.77 60.69-14.38 39.69-14.38ZM82.88-31.52L76.19-31.52 76.19-19.87Q76.66-19.9 77.8-19.91 78.95-19.92 79.58-19.93 80.22-19.95 81.37-20.03 82.51-20.12 83.21-20.23 83.91-20.34 84.89-20.57 85.88-20.8 86.51-21.11 87.13-21.41 87.82-21.89 88.52-22.36 88.91-22.95 89.3-23.54 89.56-24.35 89.81-25.17 89.81-26.15L89.81-26.15Q89.81-26.88 89.67-27.54 89.52-28.2 89.06-28.96 88.59-29.71 87.86-30.25 87.13-30.79 85.85-31.15 84.57-31.52 82.88-31.52L82.88-31.52ZM76.19-16.65L76.19-16.65 76.19-3.66 82.66-3.66Q83.54-3.66 84.14-3.67 84.74-3.69 85.86-3.82 86.98-3.96 87.78-4.19 88.57-4.42 89.55-4.9 90.52-5.37 91.12-6.03 91.72-6.69 92.13-7.73 92.55-8.76 92.55-10.08L92.55-10.08Q92.55-13.33 90.03-15.16 87.52-16.99 83.27-16.99L83.27-16.99Q82.81-16.99 76.19-16.65ZM72.04 0L72.04-34.69 84.27-34.69Q86.05-34.69 87.53-34.31 89.01-33.94 89.97-33.35 90.94-32.76 91.68-31.96 92.43-31.15 92.82-30.4 93.21-29.64 93.45-28.78 93.7-27.93 93.76-27.38 93.82-26.83 93.82-26.34L93.82-26.34Q93.82-24.22 92.38-22.11 90.94-20 89.33-19.38L89.33-19.38Q92.55-18.8 94.61-16.27 96.67-13.75 96.67-10.52L96.67-10.52Q96.67-9.77 96.54-8.94 96.41-8.11 96.02-7.06 95.62-6.01 95.01-5.05 94.4-4.1 93.35-3.16 92.3-2.22 90.95-1.54 89.59-0.85 87.63-0.43 85.66 0 83.32 0L83.32 0 72.04 0ZM112.1-24.58L112.1-24.58Q114.79-24.58 116.66-23.96 118.52-23.34 119.54-22.14 120.55-20.95 120.99-19.48 121.43-18.02 121.43-16.11L121.43-16.11 121.43 0 118.6 0 117.67-2.2Q114.71 0.49 110.88 0.49L110.88 0.49Q107.46 0.49 105.1-1.57 102.73-3.64 102.73-6.4L102.73-6.4Q102.73-7.86 103.26-9.03 103.8-10.21 104.81-10.99 105.83-11.77 107.12-12.32 108.42-12.87 110.14-13.16 111.86-13.45 113.59-13.57 115.32-13.7 117.4-13.7L117.4-13.7 117.4-15.6Q117.4-16.43 117.34-17.04 117.28-17.65 116.94-18.51 116.59-19.36 116.01-19.91 115.42-20.46 114.25-20.86 113.08-21.26 111.47-21.26L111.47-21.26Q108.98-21.26 105.02-20.17L105.02-20.17 104.26-23.1Q108.27-24.58 112.1-24.58ZM117.4-5.13L117.4-10.67 115.91-10.67Q114.52-10.67 113.49-10.62 112.47-10.57 111.09-10.34 109.71-10.11 108.83-9.69 107.95-9.28 107.33-8.48 106.71-7.69 106.71-6.59L106.71-6.59Q106.71-5.05 108.26-3.86 109.81-2.66 111.96-2.66L111.96-2.66Q115.1-2.66 117.4-5.13L117.4-5.13ZM140.22-24.58L140.22-24.58Q140.74-24.58 141.19-24.57 141.64-24.56 142.07-24.51 142.49-24.46 142.8-24.44 143.11-24.41 143.51-24.34 143.91-24.27 144.09-24.23 144.28-24.19 144.7-24.08 145.13-23.97 145.23-23.95 145.33-23.93 145.8-23.78 146.28-23.63 146.35-23.61L146.35-23.61 145.33-20.56Q142.06-21.46 139.57-21.46L139.57-21.46Q138.12-21.46 137.01-21.17 135.9-20.87 135.3-20.46 134.71-20.04 134.33-19.49 133.95-18.95 133.84-18.53 133.73-18.12 133.73-17.72L133.73-17.72Q133.73-16.72 134.77-15.94 135.81-15.16 137.36-14.67 138.91-14.18 140.71-13.51 142.52-12.84 144.07-12.1 145.62-11.35 146.66-10.01 147.7-8.67 147.7-6.91L147.7-6.91Q147.7-5.91 147.44-4.97 147.18-4.03 146.46-3 145.74-1.98 144.61-1.23 143.47-0.49 141.57 0 139.66 0.49 137.2 0.49L137.2 0.49Q133.46 0.49 128.99-1.34L128.99-1.34 130.12-4.37Q132.63-3.44 134.23-3.05 135.83-2.66 137.37-2.66L137.37-2.66Q143.32-2.66 143.32-6.45L143.32-6.45Q143.32-7.28 142.74-7.91 142.15-8.54 141.18-8.95 140.2-9.35 138.97-9.78 137.73-10.21 136.45-10.57 135.17-10.94 133.94-11.54 132.7-12.13 131.73-12.85 130.75-13.57 130.17-14.72 129.58-15.87 129.58-17.31L129.58-17.31Q129.58-18.19 129.86-19.1 130.14-20.02 130.91-21.03 131.68-22.05 132.83-22.81 133.97-23.58 135.89-24.08 137.81-24.58 140.22-24.58ZM165.39-24.58L165.39-24.58Q167.15-24.58 168.55-24.16 169.96-23.73 170.89-23.07 171.81-22.41 172.49-21.35 173.16-20.29 173.51-19.3 173.86-18.31 174.06-16.92 174.26-15.53 174.3-14.5 174.35-13.48 174.35-12.08L174.35-12.08 174.35-10.18 157.78-10.18Q157.78-8.86 158.37-7.56 158.97-6.25 160.06-5.16 161.14-4.08 162.91-3.39 164.68-2.71 166.83-2.71L166.83-2.71Q169.37-2.71 172.33-3.59L172.33-3.59 173.03-0.85Q169.1 0.49 165.32 0.49L165.32 0.49Q162.66 0.49 160.6-0.22 158.53-0.93 157.28-2.06 156.02-3.2 155.21-4.79 154.41-6.37 154.1-7.95 153.8-9.52 153.8-11.28L153.8-11.28Q153.8-13.99 154.46-16.24 155.11-18.48 156.24-20.01 157.36-21.53 158.86-22.58 160.36-23.63 162.01-24.11 163.66-24.58 165.39-24.58ZM164.54-21.12L164.54-21.12Q162.39-21.12 160.84-19.93 159.29-18.75 158.58-16.99 157.87-15.23 157.87-13.21L157.87-13.21 170.47-13.21Q170.47-21.12 164.54-21.12Z" opacity="1" transform="matrix(1,0,0,1,0,0)" fill="white" class="wordmark-text-0" id="SvgjsPath1094"></path></svg></g></svg></g></svg></g></svg></g><g><svg viewBox="0 0 148.95303906154922 218.79553565749234" height="218.79553565749234" width="148.95303906154922"><g><svg xmlns="http://www.w3.org/2000/svg" xmlns:xlink="http://www.w3.org/1999/xlink" version="1.1" x="0" y="0" viewBox="18.235558481584594 5.150000000000001 60.53718693618333 88.9224303602619" enable-background="new 0 0 100 100" xml:space="preserve" height="218.79553565749234" width="148.95303906154922" class="icon-icon-0" data-fill-palette-color="accent" id="SvgjsSvg1093"><g fill="black"><path fill-rule="evenodd" clip-rule="evenodd" d="M51.61 54.83c0.046-5.216-1.907-9.135-4.8-11.76 0.003-0.317 0.42-0.219 0.48-0.48-1.774-0.771-2.868-1.939-4.8-2.88 0.282-0.038 0.681 0.041 0.72-0.24-1.992-0.709-2.652-1.302-4.085-1.236 0.126-0.023 0.227-0.072 0.245-0.204-0.558-0.659-1.363 0.419-1.92-0.24 0.25-4.599 0.155-9.131-0.431-12.644 0.073 0.206 0.226 0.331 0.431 0.404-0.387-5.927 0.408-10.828-0.48-15.12 0.982-1.708 0.362-4.882-1.44-5.28-0.32 0-0.64 0-0.96 0-0.04 0.28-0.379 0.261-0.72 0.24-0.584 0.456-0.433 1.647-1.2 1.92 0.312 9.244 0.51 20.014 0 30.72-4.448 0.672-7.208 3.032-10.08 5.28-1.112 2.961-2.595 3.679-3.36 5.76-3.327 9.053 2.358 19.05 9.6 21.6C39.679 74.496 51.501 67.116 51.61 54.83zM23.05 58.189c-0.677-0.043-0.299-1.141-1.2-0.96 0.074-0.325 0.601-0.198 0.96-0.239C22.612 57.668 23.148 57.611 23.05 58.189zM24.97 47.63c-0.127-0.193-0.25-0.39-0.24-0.72 0.85 0.13 0.59-0.85 1.44-0.72-0.428 0.62-1.219 1.02-0.72 1.92-0.214-0.187-0.542-0.258-0.96-0.24C24.497 47.637 24.784 47.684 24.97 47.63zM26.17 63.95c-0.472-0.488-0.491-1.43-1.68-1.2 0.127-0.193 0.25-0.39 0.24-0.72 0.213 0.187 0.542 0.258 0.96 0.239C25.021 62.967 26.478 62.893 26.17 63.95zM32.17 68.27c-0.63-0.89-1.753-1.286-3.12-1.439 0-0.24 0-0.48 0-0.72-1.454 0.365-0.833-1.365-2.4-1.44 0.084-0.91 2.255 0.239 1.68 0.72 4.591 2.598 10.653 2.243 14.64-1.439 7.648-8.501 2.078-20.721-9.12-20.64-1.725 0.012-2.586 0.451-4.56 1.2 0.268-0.295 0.209-0.493-0.24-0.48 0.32 0.823-1.36 0.801-1.44 1.92-0.727-0.293 0.17-0.916 0.24-1.2-0.421 0.219-0.834 0.446-0.72 1.2-0.854-0.659 0.303-1.599 0.72-1.92 1.293-0.997 6.952-2.33 9.36-1.92 2.467 0.42 5.968 2.767 8.16 4.08 2.014 3.33 3.447 6.784 2.88 10.8C47.144 64.826 39.701 69.61 32.17 68.27zM27.37 54.35c0.962-7.469 8.983-9.011 14.16-4.8 5.284 6.291-1.839 17.556-10.32 12.72 0.651-0.964-0.54-0.38-1.2-0.96 0.882-0.421-0.201-0.438 0.24-0.72-1.728-0.81-1.641-2.915-3.12-4.08C28.074 55.785 27.249 55.288 27.37 54.35z" fill="black"></path><path fill-rule="evenodd" clip-rule="evenodd" d="M64.09 60.83c0.361-6.069 0.062-11.651 0.24-16.8 0.098-2.833 0.74-5.204 0-7.2 0.28 0.069 0.693 1.361 0.72 0.24 0.65-0.452-0.549 0.328-0.479-0.48 1.578-2.47-0.227-2.502 0.239-4.8 0.023 0.377-0.031 0.832 0.48 0.72-0.603-1.542-0.112-2.874-0.96-4.32 0.377-0.023 0.832 0.032 0.72-0.48-0.187-4.768 0.271-11.464-0.72-15.6 0.396 0.004 0.134 0.666 0.479 0.72 0.017-2.353 0.993-6.095-1.199-7.68-0.561 0-1.12 0-1.681 0-1.651 0.657-1.925 2.824-1.92 4.8 0.036 14.054 0.333 27.165 0.721 38.4-0.84 2.957-0.169 8.466-0.48 12.24-8.513 1.022-15.124 8.514-14.4 18.72 0.568 8.024 7.46 13.93 14.4 14.641C83.455 96.327 84.995 63.074 64.09 60.83zM52.33 69.47c0.431 0.03 0.506-0.294 0.96-0.24 0.18 0.74-0.827 0.293-0.48 1.2-0.213-0.147-0.429-0.29-0.479 0C51.711 70.372 52.659 70.017 52.33 69.47zM53.05 86.27c0.007-0.233 0.294-0.186 0.48-0.239-0.572-0.229-0.712-0.889-1.681-0.721 0.156-0.244 0.552-0.248 0.48-0.72 0.704 0.416 1.384 0.856 1.439 1.92C53.577 86.383 53.381 86.26 53.05 86.27zM60.01 90.83c-0.919-0.841-2.185-1.336-3.6-1.68 0.475-0.884-1.282-0.708-2.16-1.44 1.352-0.418 0.616 0.123 0-0.96 8.187 6.237 19.507 1.399 19.92-8.88 0.33-8.216-8.234-14.416-17.04-10.8-0.261-0.06-0.163-0.478-0.479-0.48-0.507 0.521-1.395 2.1-2.4 1.68-0.52-0.639 0.994-0.782 0.96-1.68 1.115-0.133 3.271-0.956 4.32-1.92 9.229-0.966 17.926 5.043 16.319 14.88C74.745 86.314 68.015 92.165 60.01 90.83zM69.13 72.11c5.367 7.192-3.013 17.464-10.32 12.72 0.487-1.026-0.486-0.454-1.439-0.96 0.134-0.499 0.374-0.509 0.72-0.24-0.839-0.372-0.268-1.132-1.92-1.44 0.158-1.039-0.53-2.473-1.68-3.359 0.045-0.272 0.24-0.134 0.24 0C53.636 70.256 63.863 67.322 69.13 72.11z" fill="black"></path></g></svg></g></svg></g></svg></g><defs><mask></mask></defs></svg><rect width="395.52" height="153.38105096633674" fill="black" stroke="none" visibility="hidden"></rect></g></mask><linearGradient x1="0" x2="1" y1="0.578" y2="0.595" id="b09c4024-c11b-439f-817f-176005f17b68"><stop stop-color="#6ee2f5" offset="0"></stop><stop stop-color="#6454f0" offset="1"></stop></linearGradient><rect width="395.52" height="153.38105096633674" fill="#ffffff" mask="url(#1adeac65-b49e-4c07-909b-68813696854a)" data-fill-palette-color="primary"></rect><mask id="64b15729-30e8-4b02-800f-3962c52f3f27"><g id="SvgjsG1116"><svg viewBox="0 0 395.52 153.38105096633674" height="153.38105096633674" width="395.52"><g><svg viewBox="0 0 564.2027468063461 218.79553565749234" height="153.38105096633674" width="395.52"><g transform="matrix(1,0,0,1,168.68274680634607,67.61099631280034)"><svg viewBox="0 0 395.52 83.57354303189166" height="83.57354303189166" width="395.52"><g id="SvgjsG1115"><svg viewBox="0 0 395.52 83.57354303189166" height="83.57354303189166" width="395.52" id="SvgjsSvg1114"><g><svg viewBox="0 0 395.52 83.57354303189166" height="83.57354303189166" width="395.52"><g transform="matrix(1,0,0,1,0,0)"><svg width="395.52" viewBox="6.71 -34.94 167.64 35.43" height="83.57354303189166" data-palette-color="url(#b09c4024-c11b-439f-817f-176005f17b68)"></svg></g></svg></g></svg></g></svg></g><g><svg viewBox="0 0 148.95303906154922 218.79553565749234" height="218.79553565749234" width="148.95303906154922"><g><svg xmlns="http://www.w3.org/2000/svg" xmlns:xlink="http://www.w3.org/1999/xlink" version="1.1" x="0" y="0" viewBox="18.235558481584594 5.150000000000001 60.53718693618333 88.9224303602619" enable-background="new 0 0 100 100" xml:space="preserve" height="218.79553565749234" width="148.95303906154922" class="icon-icon-0" data-fill-palette-color="accent" id="SvgjsSvg1113"><g fill="white"><path fill-rule="evenodd" clip-rule="evenodd" d="M51.61 54.83c0.046-5.216-1.907-9.135-4.8-11.76 0.003-0.317 0.42-0.219 0.48-0.48-1.774-0.771-2.868-1.939-4.8-2.88 0.282-0.038 0.681 0.041 0.72-0.24-1.992-0.709-2.652-1.302-4.085-1.236 0.126-0.023 0.227-0.072 0.245-0.204-0.558-0.659-1.363 0.419-1.92-0.24 0.25-4.599 0.155-9.131-0.431-12.644 0.073 0.206 0.226 0.331 0.431 0.404-0.387-5.927 0.408-10.828-0.48-15.12 0.982-1.708 0.362-4.882-1.44-5.28-0.32 0-0.64 0-0.96 0-0.04 0.28-0.379 0.261-0.72 0.24-0.584 0.456-0.433 1.647-1.2 1.92 0.312 9.244 0.51 20.014 0 30.72-4.448 0.672-7.208 3.032-10.08 5.28-1.112 2.961-2.595 3.679-3.36 5.76-3.327 9.053 2.358 19.05 9.6 21.6C39.679 74.496 51.501 67.116 51.61 54.83zM23.05 58.189c-0.677-0.043-0.299-1.141-1.2-0.96 0.074-0.325 0.601-0.198 0.96-0.239C22.612 57.668 23.148 57.611 23.05 58.189zM24.97 47.63c-0.127-0.193-0.25-0.39-0.24-0.72 0.85 0.13 0.59-0.85 1.44-0.72-0.428 0.62-1.219 1.02-0.72 1.92-0.214-0.187-0.542-0.258-0.96-0.24C24.497 47.637 24.784 47.684 24.97 47.63zM26.17 63.95c-0.472-0.488-0.491-1.43-1.68-1.2 0.127-0.193 0.25-0.39 0.24-0.72 0.213 0.187 0.542 0.258 0.96 0.239C25.021 62.967 26.478 62.893 26.17 63.95zM32.17 68.27c-0.63-0.89-1.753-1.286-3.12-1.439 0-0.24 0-0.48 0-0.72-1.454 0.365-0.833-1.365-2.4-1.44 0.084-0.91 2.255 0.239 1.68 0.72 4.591 2.598 10.653 2.243 14.64-1.439 7.648-8.501 2.078-20.721-9.12-20.64-1.725 0.012-2.586 0.451-4.56 1.2 0.268-0.295 0.209-0.493-0.24-0.48 0.32 0.823-1.36 0.801-1.44 1.92-0.727-0.293 0.17-0.916 0.24-1.2-0.421 0.219-0.834 0.446-0.72 1.2-0.854-0.659 0.303-1.599 0.72-1.92 1.293-0.997 6.952-2.33 9.36-1.92 2.467 0.42 5.968 2.767 8.16 4.08 2.014 3.33 3.447 6.784 2.88 10.8C47.144 64.826 39.701 69.61 32.17 68.27zM27.37 54.35c0.962-7.469 8.983-9.011 14.16-4.8 5.284 6.291-1.839 17.556-10.32 12.72 0.651-0.964-0.54-0.38-1.2-0.96 0.882-0.421-0.201-0.438 0.24-0.72-1.728-0.81-1.641-2.915-3.12-4.08C28.074 55.785 27.249 55.288 27.37 54.35z" fill="white"></path><path fill-rule="evenodd" clip-rule="evenodd" d="M64.09 60.83c0.361-6.069 0.062-11.651 0.24-16.8 0.098-2.833 0.74-5.204 0-7.2 0.28 0.069 0.693 1.361 0.72 0.24 0.65-0.452-0.549 0.328-0.479-0.48 1.578-2.47-0.227-2.502 0.239-4.8 0.023 0.377-0.031 0.832 0.48 0.72-0.603-1.542-0.112-2.874-0.96-4.32 0.377-0.023 0.832 0.032 0.72-0.48-0.187-4.768 0.271-11.464-0.72-15.6 0.396 0.004 0.134 0.666 0.479 0.72 0.017-2.353 0.993-6.095-1.199-7.68-0.561 0-1.12 0-1.681 0-1.651 0.657-1.925 2.824-1.92 4.8 0.036 14.054 0.333 27.165 0.721 38.4-0.84 2.957-0.169 8.466-0.48 12.24-8.513 1.022-15.124 8.514-14.4 18.72 0.568 8.024 7.46 13.93 14.4 14.641C83.455 96.327 84.995 63.074 64.09 60.83zM52.33 69.47c0.431 0.03 0.506-0.294 0.96-0.24 0.18 0.74-0.827 0.293-0.48 1.2-0.213-0.147-0.429-0.29-0.479 0C51.711 70.372 52.659 70.017 52.33 69.47zM53.05 86.27c0.007-0.233 0.294-0.186 0.48-0.239-0.572-0.229-0.712-0.889-1.681-0.721 0.156-0.244 0.552-0.248 0.48-0.72 0.704 0.416 1.384 0.856 1.439 1.92C53.577 86.383 53.381 86.26 53.05 86.27zM60.01 90.83c-0.919-0.841-2.185-1.336-3.6-1.68 0.475-0.884-1.282-0.708-2.16-1.44 1.352-0.418 0.616 0.123 0-0.96 8.187 6.237 19.507 1.399 19.92-8.88 0.33-8.216-8.234-14.416-17.04-10.8-0.261-0.06-0.163-0.478-0.479-0.48-0.507 0.521-1.395 2.1-2.4 1.68-0.52-0.639 0.994-0.782 0.96-1.68 1.115-0.133 3.271-0.956 4.32-1.92 9.229-0.966 17.926 5.043 16.319 14.88C74.745 86.314 68.015 92.165 60.01 90.83zM69.13 72.11c5.367 7.192-3.013 17.464-10.32 12.72 0.487-1.026-0.486-0.454-1.439-0.96 0.134-0.499 0.374-0.509 0.72-0.24-0.839-0.372-0.268-1.132-1.92-1.44 0.158-1.039-0.53-2.473-1.68-3.359 0.045-0.272 0.24-0.134 0.24 0C53.636 70.256 63.863 67.322 69.13 72.11z" fill="white"></path></g></svg></g></svg></g></svg></g><defs><mask></mask></defs><mask><g id="SvgjsG1112"><svg viewBox="0 0 395.52 153.38105096633674" height="153.38105096633674" width="395.52"><g><svg viewBox="0 0 564.2027468063461 218.79553565749234" height="153.38105096633674" width="395.52"><g transform="matrix(1,0,0,1,168.68274680634607,67.61099631280034)"><svg viewBox="0 0 395.52 83.57354303189166" height="83.57354303189166" width="395.52"><g id="SvgjsG1111"><svg viewBox="0 0 395.52 83.57354303189166" height="83.57354303189166" width="395.52" id="SvgjsSvg1110"><g><svg viewBox="0 0 395.52 83.57354303189166" height="83.57354303189166" width="395.52"><g transform="matrix(1,0,0,1,0,0)"><svg width="395.52" viewBox="6.71 -34.94 167.64 35.43" height="83.57354303189166" data-palette-color="url(#b09c4024-c11b-439f-817f-176005f17b68)"><path d="M24.07-34.94L24.07-34.94Q28.81-34.94 33.5-33.08L33.5-33.08 32.23-29.64Q27.49-31.27 23.95-31.27L23.95-31.27Q21.02-31.27 18.52-30.11 16.02-28.96 14.37-27.01 12.72-25.07 11.79-22.57 10.86-20.07 10.86-17.33L10.86-17.33Q10.86-14.5 11.85-11.95 12.84-9.4 14.62-7.48 16.41-5.57 19.06-4.44 21.7-3.32 24.85-3.32L24.85-3.32Q28.61-3.32 32.69-4.79L32.69-4.79 33.96-1.71Q28.86 0.49 23.8 0.49L23.8 0.49Q20.68 0.49 17.94-0.42 15.21-1.32 13.17-2.94 11.13-4.57 9.67-6.79 8.2-9.01 7.46-11.68 6.71-14.36 6.71-17.31L6.71-17.31Q6.71-22.31 8.8-26.29 10.89-30.27 14.87-32.6 18.85-34.94 24.07-34.94ZM39.69-14.38L39.69-17.77 60.69-17.77 60.69-14.38 39.69-14.38ZM82.88-31.52L76.19-31.52 76.19-19.87Q76.66-19.9 77.8-19.91 78.95-19.92 79.58-19.93 80.22-19.95 81.37-20.03 82.51-20.12 83.21-20.23 83.91-20.34 84.89-20.57 85.88-20.8 86.51-21.11 87.13-21.41 87.82-21.89 88.52-22.36 88.91-22.95 89.3-23.54 89.56-24.35 89.81-25.17 89.81-26.15L89.81-26.15Q89.81-26.88 89.67-27.54 89.52-28.2 89.06-28.96 88.59-29.71 87.86-30.25 87.13-30.79 85.85-31.15 84.57-31.52 82.88-31.52L82.88-31.52ZM76.19-16.65L76.19-16.65 76.19-3.66 82.66-3.66Q83.54-3.66 84.14-3.67 84.74-3.69 85.86-3.82 86.98-3.96 87.78-4.19 88.57-4.42 89.55-4.9 90.52-5.37 91.12-6.03 91.72-6.69 92.13-7.73 92.55-8.76 92.55-10.08L92.55-10.08Q92.55-13.33 90.03-15.16 87.52-16.99 83.27-16.99L83.27-16.99Q82.81-16.99 76.19-16.65ZM72.04 0L72.04-34.69 84.27-34.69Q86.05-34.69 87.53-34.31 89.01-33.94 89.97-33.35 90.94-32.76 91.68-31.96 92.43-31.15 92.82-30.4 93.21-29.64 93.45-28.78 93.7-27.93 93.76-27.38 93.82-26.83 93.82-26.34L93.82-26.34Q93.82-24.22 92.38-22.11 90.94-20 89.33-19.38L89.33-19.38Q92.55-18.8 94.61-16.27 96.67-13.75 96.67-10.52L96.67-10.52Q96.67-9.77 96.54-8.94 96.41-8.11 96.02-7.06 95.62-6.01 95.01-5.05 94.4-4.1 93.35-3.16 92.3-2.22 90.95-1.54 89.59-0.85 87.63-0.43 85.66 0 83.32 0L83.32 0 72.04 0ZM112.1-24.58L112.1-24.58Q114.79-24.58 116.66-23.96 118.52-23.34 119.54-22.14 120.55-20.95 120.99-19.48 121.43-18.02 121.43-16.11L121.43-16.11 121.43 0 118.6 0 117.67-2.2Q114.71 0.49 110.88 0.49L110.88 0.49Q107.46 0.49 105.1-1.57 102.73-3.64 102.73-6.4L102.73-6.4Q102.73-7.86 103.26-9.03 103.8-10.21 104.81-10.99 105.83-11.77 107.12-12.32 108.42-12.87 110.14-13.16 111.86-13.45 113.59-13.57 115.32-13.7 117.4-13.7L117.4-13.7 117.4-15.6Q117.4-16.43 117.34-17.04 117.28-17.65 116.94-18.51 116.59-19.36 116.01-19.91 115.42-20.46 114.25-20.86 113.08-21.26 111.47-21.26L111.47-21.26Q108.98-21.26 105.02-20.17L105.02-20.17 104.26-23.1Q108.27-24.58 112.1-24.58ZM117.4-5.13L117.4-10.67 115.91-10.67Q114.52-10.67 113.49-10.62 112.47-10.57 111.09-10.34 109.71-10.11 108.83-9.69 107.95-9.28 107.33-8.48 106.71-7.69 106.71-6.59L106.71-6.59Q106.71-5.05 108.26-3.86 109.81-2.66 111.96-2.66L111.96-2.66Q115.1-2.66 117.4-5.13L117.4-5.13ZM140.22-24.58L140.22-24.58Q140.74-24.58 141.19-24.57 141.64-24.56 142.07-24.51 142.49-24.46 142.8-24.44 143.11-24.41 143.51-24.34 143.91-24.27 144.09-24.23 144.28-24.19 144.7-24.08 145.13-23.97 145.23-23.95 145.33-23.93 145.8-23.78 146.28-23.63 146.35-23.61L146.35-23.61 145.33-20.56Q142.06-21.46 139.57-21.46L139.57-21.46Q138.12-21.46 137.01-21.17 135.9-20.87 135.3-20.46 134.71-20.04 134.33-19.49 133.95-18.95 133.84-18.53 133.73-18.12 133.73-17.72L133.73-17.72Q133.73-16.72 134.77-15.94 135.81-15.16 137.36-14.67 138.91-14.18 140.71-13.51 142.52-12.84 144.07-12.1 145.62-11.35 146.66-10.01 147.7-8.67 147.7-6.91L147.7-6.91Q147.7-5.91 147.44-4.97 147.18-4.03 146.46-3 145.74-1.98 144.61-1.23 143.47-0.49 141.57 0 139.66 0.49 137.2 0.49L137.2 0.49Q133.46 0.49 128.99-1.34L128.99-1.34 130.12-4.37Q132.63-3.44 134.23-3.05 135.83-2.66 137.37-2.66L137.37-2.66Q143.32-2.66 143.32-6.45L143.32-6.45Q143.32-7.28 142.74-7.91 142.15-8.54 141.18-8.95 140.2-9.35 138.97-9.78 137.73-10.21 136.45-10.57 135.17-10.94 133.94-11.54 132.7-12.13 131.73-12.85 130.75-13.57 130.17-14.72 129.58-15.87 129.58-17.31L129.58-17.31Q129.58-18.19 129.86-19.1 130.14-20.02 130.91-21.03 131.68-22.05 132.83-22.81 133.97-23.58 135.89-24.08 137.81-24.58 140.22-24.58ZM165.39-24.58L165.39-24.58Q167.15-24.58 168.55-24.16 169.96-23.73 170.89-23.07 171.81-22.41 172.49-21.35 173.16-20.29 173.51-19.3 173.86-18.31 174.06-16.92 174.26-15.53 174.3-14.5 174.35-13.48 174.35-12.08L174.35-12.08 174.35-10.18 157.78-10.18Q157.78-8.86 158.37-7.56 158.97-6.25 160.06-5.16 161.14-4.08 162.91-3.39 164.68-2.71 166.83-2.71L166.83-2.71Q169.37-2.71 172.33-3.59L172.33-3.59 173.03-0.85Q169.1 0.49 165.32 0.49L165.32 0.49Q162.66 0.49 160.6-0.22 158.53-0.93 157.28-2.06 156.02-3.2 155.21-4.79 154.41-6.37 154.1-7.95 153.8-9.52 153.8-11.28L153.8-11.28Q153.8-13.99 154.46-16.24 155.11-18.48 156.24-20.01 157.36-21.53 158.86-22.58 160.36-23.63 162.01-24.11 163.66-24.58 165.39-24.58ZM164.54-21.12L164.54-21.12Q162.39-21.12 160.84-19.93 159.29-18.75 158.58-16.99 157.87-15.23 157.87-13.21L157.87-13.21 170.47-13.21Q170.47-21.12 164.54-21.12Z" opacity="1" transform="matrix(1,0,0,1,0,0)" fill="black" class="wordmark-text-0" id="SvgjsPath1109"></path></svg></g></svg></g></svg></g></svg></g><g><svg viewBox="0 0 148.95303906154922 218.79553565749234" height="218.79553565749234" width="148.95303906154922"><g><svg xmlns="http://www.w3.org/2000/svg" xmlns:xlink="http://www.w3.org/1999/xlink" version="1.1" x="0" y="0" viewBox="18.235558481584594 5.150000000000001 60.53718693618333 88.9224303602619" enable-background="new 0 0 100 100" xml:space="preserve" height="218.79553565749234" width="148.95303906154922" class="icon-icon-0" data-fill-palette-color="accent" id="SvgjsSvg1108"><g fill="black"><path fill-rule="evenodd" clip-rule="evenodd" d="M51.61 54.83c0.046-5.216-1.907-9.135-4.8-11.76 0.003-0.317 0.42-0.219 0.48-0.48-1.774-0.771-2.868-1.939-4.8-2.88 0.282-0.038 0.681 0.041 0.72-0.24-1.992-0.709-2.652-1.302-4.085-1.236 0.126-0.023 0.227-0.072 0.245-0.204-0.558-0.659-1.363 0.419-1.92-0.24 0.25-4.599 0.155-9.131-0.431-12.644 0.073 0.206 0.226 0.331 0.431 0.404-0.387-5.927 0.408-10.828-0.48-15.12 0.982-1.708 0.362-4.882-1.44-5.28-0.32 0-0.64 0-0.96 0-0.04 0.28-0.379 0.261-0.72 0.24-0.584 0.456-0.433 1.647-1.2 1.92 0.312 9.244 0.51 20.014 0 30.72-4.448 0.672-7.208 3.032-10.08 5.28-1.112 2.961-2.595 3.679-3.36 5.76-3.327 9.053 2.358 19.05 9.6 21.6C39.679 74.496 51.501 67.116 51.61 54.83zM23.05 58.189c-0.677-0.043-0.299-1.141-1.2-0.96 0.074-0.325 0.601-0.198 0.96-0.239C22.612 57.668 23.148 57.611 23.05 58.189zM24.97 47.63c-0.127-0.193-0.25-0.39-0.24-0.72 0.85 0.13 0.59-0.85 1.44-0.72-0.428 0.62-1.219 1.02-0.72 1.92-0.214-0.187-0.542-0.258-0.96-0.24C24.497 47.637 24.784 47.684 24.97 47.63zM26.17 63.95c-0.472-0.488-0.491-1.43-1.68-1.2 0.127-0.193 0.25-0.39 0.24-0.72 0.213 0.187 0.542 0.258 0.96 0.239C25.021 62.967 26.478 62.893 26.17 63.95zM32.17 68.27c-0.63-0.89-1.753-1.286-3.12-1.439 0-0.24 0-0.48 0-0.72-1.454 0.365-0.833-1.365-2.4-1.44 0.084-0.91 2.255 0.239 1.68 0.72 4.591 2.598 10.653 2.243 14.64-1.439 7.648-8.501 2.078-20.721-9.12-20.64-1.725 0.012-2.586 0.451-4.56 1.2 0.268-0.295 0.209-0.493-0.24-0.48 0.32 0.823-1.36 0.801-1.44 1.92-0.727-0.293 0.17-0.916 0.24-1.2-0.421 0.219-0.834 0.446-0.72 1.2-0.854-0.659 0.303-1.599 0.72-1.92 1.293-0.997 6.952-2.33 9.36-1.92 2.467 0.42 5.968 2.767 8.16 4.08 2.014 3.33 3.447 6.784 2.88 10.8C47.144 64.826 39.701 69.61 32.17 68.27zM27.37 54.35c0.962-7.469 8.983-9.011 14.16-4.8 5.284 6.291-1.839 17.556-10.32 12.72 0.651-0.964-0.54-0.38-1.2-0.96 0.882-0.421-0.201-0.438 0.24-0.72-1.728-0.81-1.641-2.915-3.12-4.08C28.074 55.785 27.249 55.288 27.37 54.35z" fill="black"></path><path fill-rule="evenodd" clip-rule="evenodd" d="M64.09 60.83c0.361-6.069 0.062-11.651 0.24-16.8 0.098-2.833 0.74-5.204 0-7.2 0.28 0.069 0.693 1.361 0.72 0.24 0.65-0.452-0.549 0.328-0.479-0.48 1.578-2.47-0.227-2.502 0.239-4.8 0.023 0.377-0.031 0.832 0.48 0.72-0.603-1.542-0.112-2.874-0.96-4.32 0.377-0.023 0.832 0.032 0.72-0.48-0.187-4.768 0.271-11.464-0.72-15.6 0.396 0.004 0.134 0.666 0.479 0.72 0.017-2.353 0.993-6.095-1.199-7.68-0.561 0-1.12 0-1.681 0-1.651 0.657-1.925 2.824-1.92 4.8 0.036 14.054 0.333 27.165 0.721 38.4-0.84 2.957-0.169 8.466-0.48 12.24-8.513 1.022-15.124 8.514-14.4 18.72 0.568 8.024 7.46 13.93 14.4 14.641C83.455 96.327 84.995 63.074 64.09 60.83zM52.33 69.47c0.431 0.03 0.506-0.294 0.96-0.24 0.18 0.74-0.827 0.293-0.48 1.2-0.213-0.147-0.429-0.29-0.479 0C51.711 70.372 52.659 70.017 52.33 69.47zM53.05 86.27c0.007-0.233 0.294-0.186 0.48-0.239-0.572-0.229-0.712-0.889-1.681-0.721 0.156-0.244 0.552-0.248 0.48-0.72 0.704 0.416 1.384 0.856 1.439 1.92C53.577 86.383 53.381 86.26 53.05 86.27zM60.01 90.83c-0.919-0.841-2.185-1.336-3.6-1.68 0.475-0.884-1.282-0.708-2.16-1.44 1.352-0.418 0.616 0.123 0-0.96 8.187 6.237 19.507 1.399 19.92-8.88 0.33-8.216-8.234-14.416-17.04-10.8-0.261-0.06-0.163-0.478-0.479-0.48-0.507 0.521-1.395 2.1-2.4 1.68-0.52-0.639 0.994-0.782 0.96-1.68 1.115-0.133 3.271-0.956 4.32-1.92 9.229-0.966 17.926 5.043 16.319 14.88C74.745 86.314 68.015 92.165 60.01 90.83zM69.13 72.11c5.367 7.192-3.013 17.464-10.32 12.72 0.487-1.026-0.486-0.454-1.439-0.96 0.134-0.499 0.374-0.509 0.72-0.24-0.839-0.372-0.268-1.132-1.92-1.44 0.158-1.039-0.53-2.473-1.68-3.359 0.045-0.272 0.24-0.134 0.24 0C53.636 70.256 63.863 67.322 69.13 72.11z" fill="black"></path></g></svg></g></svg></g></svg></g><defs><mask></mask></defs></svg><rect width="395.52" height="153.38105096633674" fill="black" stroke="none" visibility="hidden"></rect></g></mask></svg><rect width="395.52" height="153.38105096633674" fill="black" stroke="none" visibility="hidden"></rect></g></mask><linearGradient x1="0" x2="1" y1="0.578" y2="0.595" id="e2226dfc-f141-4fef-a30b-82157d5d0c32"><stop stop-color="#6ee2f5" offset="0"></stop><stop stop-color="#6454f0" offset="1"></stop></linearGradient><rect width="395.52" height="153.38105096633674" fill="#ffffff" mask="url(#64b15729-30e8-4b02-800f-3962c52f3f27)" data-fill-palette-color="accent"></rect></svg><rect width="395.52" height="153.38105096633674" fill="none" stroke="none" visibility="hidden"></rect></g></svg></g></svg>